# xmcd CD database file
#
# Track frame offsets:
#	150
#	16579
#	34583
#	51399
#	68826
#	84366
#	99849
#	120517
#	138031
#	153016
#	172973
#	190153
#	208659
#
# Disc length: 2995 seconds
#
# Revision: 0
# Processed by: cddbd v1.5.2PL0 Copyright (c) Steve Scherf et al.
# Submitted via: CDex 1.70beta2
#
DISCID=930bb10d
DTITLE=Duncan Townsend - out of the red
DYEAR=2009
DGENRE=Jazz
TTITLE0=go! go!
TTITLE1=painted like a picture
TTITLE2=such an old story
TTITLE3=you shine
TTITLE4=it's here
TTITLE5=because i love you so
TTITLE6=fair's fair
TTITLE7=god's speed
TTITLE8=arms of madness
TTITLE9=lay down
TTITLE10=we go home
TTITLE11=out of the red
TTITLE12=don't fight
EXTD=YEAR: 2009
EXTT0=
EXTT1=
EXTT2=
EXTT3=
EXTT4=
EXTT5=
EXTT6=
EXTT7=
EXTT8=
EXTT9=
EXTT10=
EXTT11=
EXTT12=
PLAYORDER=
